<?xml version="1.0" encoding="utf-8"?>
<!-- Generator: Adobe Illustrator 27.5.0, SVG Export Plug-In . SVG Version: 6.00 Build 0)  -->
<svg version="1.1" id="Layer_1" xmlns="http://www.w3.org/2000/svg" xmlns:xlink="http://www.w3.org/1999/xlink" x="0px" y="0px"
	 viewBox="0 0 1350 900" style="enable-background:new 0 0 1350 900;" xml:space="preserve">
<rect style="fill:#FFFFFF;" width="1350" height="900"/>
<g>
	<g>
		<path style="fill:#91EBF9;" d="M1261.817,565.698c0,17.846-1.264,35.451-3.718,52.758c-1.583,11.217-3.677,22.31-6.248,33.259
			c-0.56,2.384-1.147,4.769-1.756,7.14c-7.126,27.916-17.39,54.879-30.488,80.646c-5.425,10.658-11.321,21.116-17.694,31.359
			c-8.066,0.186-16.278,0.374-24.627,0.553h-0.007c-4.126,0.083-8.28,0.166-12.469,0.256c-10.194,0.208-20.59,0.408-31.179,0.601
			c-0.352,0.007-0.698,0.014-1.05,0.021h-0.103c-1.611,0.028-3.229,0.063-4.845,0.09c-3.871,0.069-7.77,0.138-11.696,0.199
			c-5.274,0.091-10.596,0.181-15.96,0.269c-4.251,0.07-8.535,0.139-12.848,0.208c-0.159,0-0.318,0.007-0.477,0.007
			c-10.368,0.159-20.881,0.318-31.539,0.463c-3.987,0.063-7.997,0.117-12.019,0.166c-10.506,0.144-21.15,0.276-31.925,0.407
			c-5.737,0.07-11.508,0.132-17.315,0.201c-12.157,0.131-24.481,0.262-36.943,0.381c-1.825,0.014-3.656,0.034-5.496,0.048
			c-77.585,0.719-160.74,1.106-247.241,1.106c-126.866,0-246.544-0.836-351.983-2.323c-17.341-0.241-34.304-0.505-50.843-0.782
			c-3.587-0.055-7.161-0.117-10.706-0.179c-29.506-0.512-57.638-1.079-84.206-1.693c-6.373-10.243-12.269-20.702-17.688-31.359
			c-2.599-5.107-5.079-10.264-7.444-15.461c-2.288-4.998-4.465-10.036-6.525-15.116c-6.096-14.957-11.253-30.26-15.427-45.859
			c-1.755-6.545-3.331-13.146-4.734-19.797c-1.811-8.584-3.332-17.251-4.541-25.988c-0.422-3.019-0.802-6.047-1.148-9.088
			c-0.179-1.59-0.345-3.179-0.511-4.776c-0.359-3.58-0.671-7.167-0.926-10.768c-0.636-8.916-0.961-17.902-0.961-26.95
			c0-251.036,249.668-454.547,557.643-454.547c139.141,0,266.38,41.54,364.071,110.236c7.922,5.563,15.641,11.316,23.161,17.232
			c3.857,3.034,7.659,6.11,11.398,9.227c3.78,3.152,7.498,6.338,11.169,9.573c8.308,7.34,16.332,14.91,24.04,22.678
			c4.368,4.403,8.639,8.874,12.801,13.408C1220.526,369.384,1261.817,463.612,1261.817,565.698z"/>
		<path style="fill:#FFFFFF;" d="M283.625,340.528h415.109c9.682-28.16-23.824-28.761-37.562-6.552
			c3.813-9.596,0.616-15.133-4.101-24.061c-9.544,2.662-18.64,11.245-24.126,19.035c-0.121-26.619-26.349-33.153-35.123-6.261
			c-6.287-10.799-17.048-33.797-33.228-30.187c-16.973,3.787-8.984,23.127-14.044,35.593c-14.355-32.186-29.524-15.061-50.309-4.85
			c-2.763-36.352-34.833-14.204-47.961-2.841c-0.196-28.889-28.085-43.626-40.695-11.197c-12.68-15.29-57.577-44.644-50.732,0.066
			c-16.858-32.713-55.446-29.225-41.563,13.345C292.477,294.965,267.415,325.174,283.625,340.528z"/>
		<path style="fill:#FFFFFF;" d="M764.482,247.355h296.62c6.917-20.122-17.025-20.552-26.84-4.682
			c2.724-6.856,0.44-10.813-2.932-17.193c-6.819,1.903-13.319,8.035-17.239,13.602c-0.087-19.02-18.828-23.69-25.097-4.474
			c-4.494-7.717-12.183-24.15-23.744-21.57c-12.129,2.706-6.419,16.525-10.035,25.435c-10.258-22.999-21.096-10.765-35.949-3.467
			c-1.974-25.975-24.891-10.149-34.271-2.03c-0.141-20.643-20.069-31.173-29.079-8c-9.061-10.926-41.142-31.9-36.251,0.046
			c-12.046-23.374-39.62-20.883-29.698,9.537C770.806,214.798,752.899,236.383,764.482,247.355z"/>
	</g>
	<g>
		<path style="fill:#80798D;" d="M1320.528,775.836c0,7.777-88.138,14.736-227.111,19.417
			c-112.683,3.798-258.78,6.085-418.417,6.085c-159.638,0-305.735-2.286-418.418-6.085c-138.973-4.681-227.11-11.64-227.11-19.417
			c0-7.496,81.882-14.236,212.24-18.908c114.551-4.097,266.534-6.594,433.288-6.594s318.737,2.497,433.287,6.594
			C1238.647,761.6,1320.528,768.341,1320.528,775.836z"/>
		<g>
			<g style="opacity:0.7;">
				<path style="fill:#80798D;" d="M1175.959,777.712c0,6.509-228.77,11.784-510.973,11.784
					c-282.202,0-510.971-5.275-510.971-11.784c0-6.507,228.769-11.783,510.971-11.783
					C947.189,765.929,1175.959,771.205,1175.959,777.712z"/>
			</g>
			<g>
				<g>
					<g>
						<g>
							<path style="fill:#FFA371;" d="M820.107,613.972l-10.814,3.11l-2.79,0.801l-5.659,1.628c-1.183,0.529-2.279,1.161-3.316,1.87
								c-3.435,2.297-6.253,5.324-9.537,7.982c-3.735,3.016-8.316,5.125-9.332,9.898c-3.107,14.599-0.837,25.154,0.311,24.778
								c3.988-0.756,3.727-11.274,6.029-16.579c-0.802,3.655-0.623,19.531,3.272,18.62c2.387,0.92,2.222-4.696,2.474-7.837
								c0.227,3.253,0.767,8.757,2.438,8.262c2.892,0.218,3.336-5.593,3.829-9.529c0.415,2.585,1.352,7.466,3.356,6.235
								c2.97-0.142,2.502-9.198,3.59-16.6c0.372-2.559,0.932-4.92,1.876-6.648c2.228-4.08,5.878-7.147,8.383-11.022
								C816.233,625.813,820.531,616.96,820.107,613.972z M791.213,648.393c0.096-0.871,0.224-1.685,0.423-2.421
								C791.49,646.707,791.342,647.522,791.213,648.393z"/>
						</g>
						<path style="fill:#E07F4F;" d="M803.958,646.612c-1.088,7.401-0.619,16.458-3.59,16.6c-2.004,1.231-2.94-3.65-3.356-6.235
							c-0.493,3.937-0.937,9.747-3.829,9.529c-1.67,0.495-2.211-5.009-2.438-8.262c-0.252,3.141-0.088,8.757-2.474,7.837
							c-3.895,0.911-4.073-14.965-3.272-18.62c-2.301,5.305-2.041,15.823-6.029,16.579c-1.148,0.376-3.419-10.178-0.311-24.778
							c1.016-4.774,5.597-6.882,9.332-9.898c3.283-2.658,6.102-5.685,9.537-7.982l8.975-3.498l2.757-1.075
							c0.016,0.086,0.033,0.18,0.033,0.273c0.39,3.869-5.067,12.387-7.817,15.397c-2.596,2.837-6.956,6.135-10.758,6.901
							C793.665,643.852,798.835,645.783,803.958,646.612z"/>
						<path style="fill:#FFA371;" d="M813.976,611.684l-6.836-8.569c-3.432,7.414-2.908,12.665-10.862,17.104
							c-4.027,2.247-8.332,3.013-10.992,6.833c-2.291,3.29-14.133,8.968-14.849,10.537c-2.295,10.267,13.964-1.453,15.836-2.263
							c4.287-1.854,7.591-1.331,12.27-2.679C805.996,630.502,817.383,620.193,813.976,611.684z"/>
					</g>
					<g>
						<path style="fill:#FA183D;" d="M931.443,393.956c0.119,14.089-5.566,28.846-8.615,37.965
							c-13.816,41.33-35.16,81.297-57.307,119.202c-14.736,25.238-29.82,49.775-46.558,73.734l-18.539-12.62
							c0.044-0.103,0.078-0.206,0.12-0.309c1.04-2.635,5.092-12.968,10.347-26.142c9.761-24.517,23.697-58.845,30.166-71.65
							c13.093-25.908,21.816-54.038,29.511-81.639c4.015-14.4,8.805-32.118,16.694-44.449c5.737-8.945,26.639-23.897,33.941-18.291
							l7.553,9.741C930.634,384.045,931.407,388.958,931.443,393.956z"/>
						<path style="fill:#CA0A31;" d="M931.443,393.956c0.119,14.089-5.566,28.846-8.615,37.965
							c-13.816,41.33-35.16,81.297-57.307,119.202c-14.736,25.238-29.82,49.775-46.558,73.734l-18.539-12.62
							c0.044-0.103,0.078-0.206,0.12-0.309c1.04-2.635,5.092-12.968,10.347-26.142c31.492-23.147,51.706-56.722,71.888-89.588
							c9.638-15.711,18.902-31.736,27.216-48.075c8.135-15.951,19.583-41.271,17.484-59.273L931.443,393.956z"/>
					</g>
					<g>
						<g>
							<g>
								<path style="fill:#090606;" d="M1001.249,574.468c-0.825,28.801-9.712,53.892-24.728,83.415
									c-6.793,13.335-14.84,27.583-23.963,43.486c-2.299,4.008-4.48,7.973-6.612,11.883c-10.305,18.887-19.426,36.712-34.66,53.48
									c-18.776,20.657-35.887,14.244-43.603-1.058c-3.245-6.455-4.825-14.502-4.154-22.751
									c2.364-28.997,11.117-64.163,21.773-91.735c8.678-22.437,22.472-67.233,40.513-79.466l74.125-23.081
									C1001.062,557.678,1001.492,566.226,1001.249,574.468z"/>
								<path style="fill:#251E1E;" d="M1049.678,709.255c-3.058-15.948-20.843,7.011-35.017,8.861l15.121,17.14
									c-0.675,3.443,1.382,10.052,3.236,14.99c-9.039,8.935-26.574,22.628-1.411,22.906c7.375,0.082,11.212-0.247,18.699-2.78
									c11.558-3.908,9.389-5.28,10.417-17.741C1061.657,741.344,1052.93,726.216,1049.678,709.255z"/>
								<path style="fill:#090606;" d="M1035.869,745.287c-39.638,23.031-114.885,33.753-149.567,34.445l-10.247-44.422
									c13.994-18.869,48.155-30.187,74.262-28.752c5.658,0.312,10.94,1.22,15.556,2.773c20.959,7.07,37.581,8.881,58.229,3.101
									c2.801-0.777,5.672-1.705,8.645-2.774C1035.521,717.823,1035.817,736.564,1035.869,745.287z"/>
								<path style="fill:#010101;" d="M1024.103,712.431c-7.71,5.343-16.608,9.297-27.844,12.185
									c-11.143,2.863-21.515,6.498-32.877,9.752c-10.054,2.878-18.151,8.665-27.377,13.272
									c0.412-16.192,6.863-28.458,14.312-41.082c5.658,0.312,10.94,1.22,15.556,2.773
									C986.833,716.399,1003.454,718.21,1024.103,712.431z"/>
								<path style="fill:#010101;" d="M1001.249,574.47c-1.196,41.818-19.386,75.817-48.689,126.9
									c-2.3,4.008-4.484,7.972-6.619,11.883c5.162-15.63,8.847-31.75,12.63-48.238c3.616-15.775,7.439-31.74,10.351-47.696
									c1.516-8.334,9.021-43.437,4.846-46.613L1001.249,574.47z"/>
							</g>
							<path style="fill:#010101;" d="M976.521,657.883c-6.793,13.335-14.84,27.583-23.963,43.486
								c-2.299,4.008-4.48,7.973-6.612,11.883c-10.305,18.887-19.426,36.712-34.66,53.48c-18.776,20.657-35.887,14.244-43.603-1.058
								c6.463-1.135,12.77-3.358,19.418-8.812c11.216-9.212,10.27-29.957,14.54-43.602c5.422-17.33,7.673-28.39,11.612-46.2
								c7.309-33.059,20.207-45.895,24.51-59.036L976.521,657.883z"/>
						</g>
						<g>
							<path style="fill:#090606;" d="M1041.13,577.557c-0.898,41.825-18.842,75.952-47.775,127.246
								c-2.272,4.022-4.429,8.003-6.533,11.93c-10.163,18.963-19.16,36.847-34.276,53.727
								c-26.488,29.575-49.996,4.352-47.923-23.464c2.158-29.016,10.657-64.243,21.112-91.889
								c8.52-22.502,21.991-67.399,39.945-79.754l73.956-23.619C1040.823,560.767,1041.312,569.313,1041.13,577.557z"/>
							<path style="fill:#251E1E;" d="M1090.525,711.989c-3.174-15.926-20.793,7.161-34.952,9.112l15.245,17.032
								c-0.651,3.447,1.452,10.041,3.343,14.965c-8.976,8.999-26.413,22.817-1.248,22.915c7.375,0.029,11.21-0.328,18.679-2.913
								c11.529-3.99,9.351-5.346,10.29-17.814C1102.734,743.991,1093.901,728.926,1090.525,711.989z"/>
							<path style="fill:#090606;" d="M1076.976,748.12c-39.471,23.316-126.161,57.734-154.377,34.589l-5.503-43.417
								c13.858-18.969,47.935-30.532,74.053-29.286c5.659,0.271,10.948,1.141,15.574,2.662c21.009,6.918,37.645,8.611,58.251,2.681
								c2.797-0.798,5.66-1.744,8.625-2.837C1076.429,720.658,1076.861,739.396,1076.976,748.12z"/>
							<path style="fill:#010101;" d="M1064.975,715.349c-7.672,5.398-16.541,9.417-27.756,12.383
								c-11.123,2.943-21.468,6.654-32.806,9.99c-10.033,2.951-18.087,8.794-27.281,13.468c0.297-16.194,6.658-28.507,14.018-41.184
								c5.659,0.271,10.948,1.141,15.574,2.662C1027.733,719.586,1044.369,721.278,1064.975,715.349z"/>
							<path style="fill:#010101;" d="M1041.13,577.557c-0.898,41.825-18.842,75.952-47.775,127.246
								c-2.272,4.022-4.429,8.003-6.533,11.93c5.047-15.668,8.617-31.814,12.28-48.328c3.504-15.802,7.211-31.794,10.011-47.771
								c1.453-8.345,8.707-43.502,4.508-46.644L1041.13,577.557z"/>
						</g>
						<g>
							<path style="fill:#FA183D;" d="M1035.405,618.54c0,0-139.123-5.327-128.822-29.28c12.385-28.785,4.459-68.841-1.729-95.646
								c-2.316-10.024-4.385-18.2-5.063-23.233c-3.825-28.404-7.548-35.032-13.52-63.446c-2.519-12.003-0.195-22.099,11.166-30.798
								c10.802-8.271,30.044-10.01,41.102-17.066l8.591-25.203c1.773,12.464,45.232,20.838,56.509,24.104
								c18.138,5.235,29.581,4.324,36.207,16.863c1.35,2.544,2.493,5.635,3.465,9.445c2.221,8.75,3.485,17.798,4.107,27.007v0.009
								c1.621,24.19-1.234,49.503-3.002,73.474C1043.143,501.956,1050.837,598.019,1035.405,618.54z"/>
						</g>
						<g>
							<path d="M899.593,320.139c0.809-12.844,3.172-29.766,9.518-43.935c-2.012,0.845-4.072,1.537-6.202,1.984
								c-0.522,0.112-1.018,0.149-1.493,0.146c-5.203,13.977-7.269,29.389-8.026,41.4c-0.926,14.73-0.593,35.5,2.245,48.694
								l6.036-1.856C899,354.146,898.703,334.298,899.593,320.139z"/>
							<path d="M893.058,284.623c0.034-1.715,0.063-3.452,0.045-5.174c-1.917,1.171-3.878,2.244-5.915,3.126
								c-0.106,0.045-0.21,0.083-0.315,0.124c-0.01,0.622-0.024,1.248-0.034,1.883c-0.071,3.759-0.147,7.642,0.315,11.257
								c1.254,9.79,3.446,19.435,6.7,29.482l5.827-2.64c-3.099-9.573-5.186-18.737-6.374-28.022
								C892.922,291.654,892.988,288.239,893.058,284.623z"/>
						</g>
						<path style="fill:#2E0606;" d="M901.007,258.887l-25.25,1.681c-2.317,5.524,4.643,17.475,7.15,22.785
							c2.949,6.241,6.73,13.423,12.419,17.431C895.124,287.844,908.573,271.323,901.007,258.887z"/>
						<g>
							<path style="fill:#FFA371;" d="M934.087,298.206c3.07-0.58,6.177-1.283,9.281-2.094c7.854-2.04,15.69-4.722,22.908-7.576
								c2.415,4.398,4.261,9.405,5.849,14.69c1.095,3.626,2.064,7.38,3.007,11.155c0.303,1.195,0.605,2.394,0.904,3.595
								c1.56,6.243,3.145,12.442,5.211,18.091c1.883,5.148,4.154,9.845,7.172,13.716l11.746,7.655
								c-10.901,15.356-46.2,44.412-68.892,27.468C938.998,357.17,938.028,326.539,934.087,298.206z"/>
							<path style="fill:#E07F4F;" d="M935.305,307.93l8.064-11.818c7.854-2.04,15.69-4.722,22.908-7.576
								c3.982,7.245,4.934,10.664,5.849,14.69c0.658,2.873,1.3,6.053,3.007,11.155c0.314,0.934,0.666,1.932,1.056,3.005
								c-0.05,0.201-0.099,0.394-0.152,0.59c-6.823,26.692-25.749,39.009-40.229,43.372
								C937.853,343.691,937.253,325.494,935.305,307.93z"/>
						</g>
						<path style="fill:#FFA371;" d="M888.565,304.854c-2.241-7.496,1.07-17.473-0.362-23.605
							c-12.588-53.888,11.961-53.777,11.961-53.777c10.229-4.098,23.137-6.19,33.256-0.561c7.154,3.982,13.337,14.007,17.857,20.94
							c12.164,18.663,24.079,34.921,18.389,57.003c-3.696,14.337-5.488,29.659-17.479,38.554
							c-9.665,7.165-26.727,18.239-36.705,9.957C905.035,344.701,892.329,317.444,888.565,304.854z"/>
						<g>
							<path style="fill:#2E0606;" d="M943.653,255.136c-0.527-0.286-1.05-0.457-1.558-0.478L943.653,255.136z"/>
							<path style="fill:#2E0606;" d="M977.171,265.401l-33.518-10.265c4.842,2.644,10.145,15.577,11.254,20.08
								c2.223,9.03,3.294,16.771,3.905,26.066c5.154-2.28,11.226-0.536,16.958-0.864c1.683-5.866,1.299-12.871,1.82-19.072
								C978.025,276.153,976.537,270.071,977.171,265.401z"/>
						</g>
						<g>
							<path style="fill:#FFA371;" d="M964.031,291.438c-2.192,8.752,0.836,17.049,6.763,18.537
								c5.927,1.484,12.51-4.408,14.704-13.158c2.193-8.752-0.834-17.051-6.762-18.535
								C972.809,276.794,966.224,282.687,964.031,291.438z"/>
							<path style="fill:#E07F4F;" d="M982.12,289.983c0,0,0.049-0.119,0.144-0.339c0.046-0.113,0.103-0.249,0.155-0.416
								c0.054-0.167,0.121-0.363,0.161-0.588c0.109-0.442,0.187-0.997,0.155-1.658c-0.033-0.656-0.17-1.429-0.587-2.239
								c-0.211-0.4-0.485-0.807-0.834-1.205c-0.359-0.392-0.809-0.752-1.331-1.061c-1.041-0.624-2.411-0.927-3.711-0.839
								c-0.654,0.033-1.288,0.167-1.885,0.36c-0.602,0.189-1.164,0.444-1.685,0.746c-0.529,0.294-1.003,0.64-1.453,1.005
								l-0.042,0.033l-0.067,0.061l-0.017,0.016l-0.073,0.068l-0.141,0.137l-0.284,0.273c-0.096,0.101-0.188,0.168-0.284,0.29
								l-0.286,0.347c-0.405,0.469-0.675,0.94-0.967,1.405c-0.145,0.232-0.251,0.482-0.371,0.722
								c-0.115,0.241-0.242,0.479-0.328,0.726c-0.096,0.242-0.188,0.487-0.283,0.734c-0.092,0.24-0.151,0.492-0.229,0.733
								c-0.153,0.489-0.263,0.974-0.358,1.458c-0.109,0.479-0.161,0.959-0.231,1.424c-0.05,0.471-0.085,0.928-0.117,1.377
								c-0.005,0.453-0.025,0.886-0.018,1.309c0.021,0.423,0.032,0.833,0.06,1.222c0.039,0.396,0.066,0.768,0.112,1.127
								c0.058,0.356,0.115,0.692,0.168,1.012c0.129,0.634,0.26,1.18,0.404,1.628c0.123,0.45,0.273,0.795,0.365,1.029
								c0.096,0.235,0.148,0.36,0.148,0.36s-0.005-0.132-0.017-0.373c-0.018-0.243-0.035-0.596-0.036-1.041
								c-0.02-0.441,0.016-0.979,0.025-1.59c0.021-0.305,0.042-0.63,0.067-0.97c0.031-0.343,0.064-0.701,0.099-1.073
								c0.044-0.367,0.105-0.751,0.159-1.147c0.067-0.396,0.136-0.801,0.208-1.221c0.095-0.414,0.172-0.843,0.275-1.271
								c0.124-0.424,0.201-0.87,0.35-1.301c0.257-0.876,0.578-1.76,0.97-2.617c0.088-0.218,0.208-0.42,0.318-0.63
								c0.117-0.206,0.209-0.424,0.34-0.623l0.379-0.594c0.123-0.212,0.275-0.348,0.407-0.529l0.198-0.263
								c0.058-0.085,0.176-0.181,0.261-0.271l0.28-0.278l0.14-0.141l0.068-0.065l0.018-0.018c0.046-0.04-0.05,0.045-0.038,0.032
								l0.01-0.005l0.036-0.03c0.372-0.303,0.741-0.611,1.151-0.848c0.799-0.505,1.683-0.855,2.568-0.974
								c0.884-0.113,1.767-0.005,2.518,0.345c0.756,0.332,1.374,0.876,1.816,1.465c0.428,0.598,0.707,1.236,0.876,1.816
								c0.155,0.582,0.247,1.116,0.265,1.558c0.021,0.437,0.031,0.785,0.012,1.029C982.124,289.851,982.12,289.983,982.12,289.983z"
								/>
						</g>
						<g>
							<path d="M968.01,315.715c0.625-12.854,0.159-29.932-4.573-44.72c1.907,1.065,3.877,1.98,5.945,2.662
								c0.505,0.168,0.993,0.261,1.468,0.31c3.614,14.468,3.954,30.014,3.37,42.035c-0.717,14.743-3.36,35.347-7.647,48.144
								l-5.792-2.519C964.819,349.577,967.323,329.885,968.01,315.715z"/>
							<path d="M978.456,281.145c0.157-1.709,0.319-3.437,0.53-5.147c1.773,1.382,3.605,2.664,5.531,3.768
								c0.101,0.057,0.2,0.103,0.299,0.154c-0.058,0.623-0.116,1.244-0.176,1.876c-0.346,3.742-0.703,7.611-1.566,11.153
								c-2.338,9.589-5.584,18.929-9.937,28.552l-5.498-3.269c4.147-9.166,7.239-18.045,9.45-27.139
								C977.809,288.145,978.121,284.745,978.456,281.145z"/>
						</g>
						<g>
							<path style="fill:#E07F4F;" d="M922.888,285.754c-0.756,4.224,0.272,7.16,0.95,11.48c0,0,13.613-0.221,19.348-1.023
								C936.438,288.957,936.737,282.095,922.888,285.754z"/>
							<path style="fill:#FFFFFF;" d="M943.186,296.211c-1.797,0.252-4.319,0.739-6.944,1.283c-3.8,0.792-7.792,1.719-10.057,2.249
								c-1.15,0.277-1.86,0.445-1.86,0.445c-0.678-4.322-1.708-7.256-0.947-11.475c0.594-0.134,1.165-0.254,1.704-0.351
								c4.283-0.793,7.191-0.57,9.782,0.678C937.576,290.326,939.939,292.721,943.186,296.211z"/>
							<path d="M936.172,293.135c0.255,1.537,0.265,3.019,0.069,4.359c-3.8,0.792-7.792,1.719-10.057,2.249
								c-0.754-1.325-1.332-2.922-1.623-4.694c-0.411-2.484-0.185-4.846,0.52-6.688c4.283-0.793,7.191-0.57,9.782,0.678
								C935.468,290.231,935.924,291.622,936.172,293.135z"/>
							<path style="fill:#FFFFFF;" d="M928.661,294.92c0.231,1.398-0.102,2.618-0.744,2.724c-0.641,0.106-1.347-0.944-1.578-2.343
								c-0.231-1.399,0.102-2.619,0.743-2.724C927.724,292.472,928.43,293.521,928.661,294.92z"/>
						</g>
						<g>
							<path style="fill:#E07F4F;" d="M886.865,290.463c-0.35,4.156,0.525,7.119,1.213,11.436c0,0,9.793,0.411,13.886-0.121
								C896.769,294.268,896.669,287.471,886.865,290.463z"/>
							<path style="fill:#FFFFFF;" d="M901.964,301.777c-1.284,0.168-3.077,0.533-4.94,0.953c-2.7,0.61-5.533,1.346-7.138,1.766
								c-0.818,0.223-1.321,0.358-1.321,0.358c-0.687-4.32-1.565-7.281-1.21-11.433c0.421-0.104,0.826-0.196,1.209-0.269
								c3.05-0.59,5.154-0.233,7.076,1.125C897.653,295.679,899.464,298.165,901.964,301.777z"/>
							<path d="M896.771,298.401c0.254,1.536,0.331,3.008,0.253,4.329c-2.7,0.61-5.533,1.346-7.138,1.766
								c-0.605-1.347-1.094-2.96-1.386-4.732c-0.41-2.483-0.356-4.817,0.064-6.613c3.05-0.59,5.154-0.233,7.076,1.125
								C896.131,295.487,896.523,296.889,896.771,298.401z"/>
							<path style="fill:#FFFFFF;" d="M891.445,299.825c0.23,1.399,0.047,2.594-0.411,2.67c-0.456,0.075-1.013-0.998-1.243-2.396
								c-0.23-1.4-0.049-2.596,0.41-2.671C890.657,297.353,891.215,298.427,891.445,299.825z"/>
						</g>
						<g>
							<path style="fill:#E07F4F;" d="M907.376,299.335c0,0-1.943,12.622-0.43,25.858c3.884,0.202,8.703,0.889,12.152-0.593
								c-2.819-0.887-6.298-1.6-8.933-2.831C909.599,317.472,907.15,302.183,907.376,299.335z"/>
							<path style="fill:#E07F4F;" d="M919.132,324.587c-0.011,0.005-0.024,0.009-0.033,0.013c0.009,0.004,0.022,0.007,0.033,0.011
								C919.291,324.604,919.291,324.594,919.132,324.587z"/>
						</g>
						<path style="fill:#E07F4F;" d="M913.109,334.646c0,0,0.3-0.345,0.858-0.909c0.277-0.28,0.612-0.628,1.031-0.991
							c0.413-0.368,0.869-0.802,1.417-1.208c0.533-0.428,1.124-0.885,1.793-1.31c0.649-0.453,1.398-0.845,2.166-1.257
							c0.789-0.37,1.613-0.752,2.487-1.034c0.866-0.335,1.753-0.522,2.679-0.769c0.427-0.09,0.872-0.174,1.352-0.252
							c0.467-0.078,0.916-0.128,1.37-0.176c0.906-0.103,1.803-0.124,2.666-0.129c0.866,0.014,1.702,0.054,2.493,0.152
							c0.788,0.081,1.529,0.229,2.205,0.382c0.676,0.152,1.286,0.345,1.814,0.535c0.53,0.195,0.979,0.392,1.336,0.581
							c0.364,0.168,0.628,0.353,0.811,0.463c0.18,0.117,0.275,0.179,0.275,0.179s-0.115-0.014-0.326-0.041
							c-0.211-0.032-0.516-0.074-0.905-0.111c-0.384-0.05-0.858-0.066-1.388-0.108c-0.534-0.022-1.135-0.026-1.784-0.031
							c-1.304,0.024-2.816,0.108-4.42,0.275c-0.803,0.092-1.629,0.194-2.46,0.324c-0.415,0.071-0.83,0.141-1.248,0.214
							c-0.398,0.068-0.823,0.159-1.267,0.256c-0.794,0.205-1.662,0.374-2.449,0.625c-0.811,0.215-1.582,0.495-2.34,0.748
							c-0.741,0.301-1.48,0.548-2.154,0.867c-0.685,0.288-1.335,0.577-1.933,0.862c-1.214,0.567-2.225,1.039-2.932,1.369
							C913.537,334.483,913.109,334.646,913.109,334.646z"/>
						<path d="M899.194,279.885c-6.199-0.757-12.577,2.814-16.663,5.511l0.419,5.564c5.562-0.996,11.078-1.918,16.671-1.521
							C899.859,286.686,900.108,282.803,899.194,279.885z"/>
						<path d="M917.654,278.77c4.738-4.069,14.927-7.267,19.824-7.292l2.739,4.863c-5.182,2.257-12.557,5.46-16.99,8.895
							C921.233,285.028,918.515,281.704,917.654,278.77z"/>
						<g>
							<path style="fill:#122DF3;" d="M976.888,286.773c-17.207,1.861-10.29-18.45-21.113-22.254
								c-2.413-0.85-8.798-0.789-15.902-0.267c-10.015,0.731-21.45,2.36-25.184,3.64c-6.302,2.158-25.686,6.386-37.245,11.507
								c0,0-11.774-23.029-3.823-43.637c4.955-12.875,17.611-24.799,45.631-29.573c18.781-3.202,32.371-2.346,42.295,1.285
								c21.816,7.98,25.956,29.407,28.625,50.824c0.009,0.095,0.025,0.188,0.033,0.282
								C991.587,269.708,993.245,285.004,976.888,286.773z"/>
							<path style="fill:#002491;" d="M976.888,286.773c-17.207,1.861-10.29-18.45-21.113-22.254
								c-2.413-0.85-8.798-0.789-15.902-0.267c8.806-5.903,14.654-14.223,19.81-23.589c5.901-10.734,4.127-21.691,1.864-33.189
								c21.816,7.98,25.956,29.407,28.625,50.824c0.009,0.095,0.025,0.188,0.033,0.282
								C991.587,269.708,993.245,285.004,976.888,286.773z"/>
							<g>
								<path style="fill:#052CC0;" d="M976.888,286.773c-17.207,1.861-10.29-18.45-21.113-22.254
									c-5.808-2.044-34.707,1.189-41.086,3.373c-6.302,2.158-25.686,6.386-37.245,11.507c0,0-11.774-23.029-3.823-43.637
									c0.045,4.775,0.87,9.012,1.822,13.764c0.944,4.719,0.989,10.426,3.834,14.428c12.731-10.024,32.996-14.346,48.704-17.468
									c6.772-1.343,13.86-2.036,20.972-1.659c7.207,0.376,8.877,4.145,12.929,9.345c8.083,10.383,19.176,10.071,28.323,4.409
									C991.587,269.708,993.245,285.004,976.888,286.773z"/>
							</g>
							<path style="fill:#6680FC;" d="M897.721,222.304c-15.139,7.155-20.195,24.348-14.79,39.553
								c1.377,3.871,7.583,2.212,6.194-1.699c-4.519-12.706-0.883-26.298,11.829-32.308
								C904.695,226.083,901.443,220.546,897.721,222.304L897.721,222.304z"/>
						</g>
						<g>
							<path style="fill:#CA0A31;" d="M1035.405,618.54c0,0-139.123-5.327-128.822-29.28c12.385-28.785,4.459-68.841-1.729-95.646
								c39.186,17.93,105.739,23.937,124.473-16.317c9.302-19.99,11.824-43.968,11.85-65.699
								c0.016-12.274-0.687-24.504-1.332-36.762c1.35,2.544,2.493,5.635,3.465,9.445c2.221,8.75,3.485,17.798,4.107,27.007v0.009
								c1.621,24.19-1.234,49.503-3.002,73.474C1043.143,501.956,1050.837,598.019,1035.405,618.54z"/>
						</g>
					</g>
					<g>
						<path style="fill:#FFA371;" d="M1157.111,639.483c-2.823-3.259-9.992-8.702-10.877-12.647l-21.134-2.983
							c5.336,5.062,3.463,16.733,3.749,24.076c0.149,3.841,3.261,17.84,6.097,19.851c4.786-3.559,1.008-11.689,1.543-16.545
							c2.417-0.315,9.75,10.297,11.735,12.857c2.571,3.316,2.738,4.323,2.63,8.14c-0.094,3.441-1.388,6.879,0.355,9.923
							c4.391-1.659,5.154-11.455,6.321-15.574c-0.086,1.87-0.347,3.607-0.141,5.402c4.977-2.032,7.33-14.636,3.57-18.152
							C1164.591,647.366,1161.618,644.687,1157.111,639.483z"/>
						<path style="fill:#FA183D;" d="M1148.313,628.738c-7.868-30.717-59.872-181.386-83.021-222.079
							c-6.917-12.159-18.761-35.648-36.735-42.167l-12.327-0.776c-8.977,1.964-10.719,29.661-7.452,40.706
							c4.507,15.217,15.155,31.736,23.726,45.26c16.438,25.935,32.616,53.079,44.314,82.201
							c9.03,22.483,44.069,91.906,50.076,103.869L1148.313,628.738z"/>
					</g>
				</g>
				<g>
					<g>
						<g>
							<g>
								<path style="fill:#878888;" d="M868.66,743.854c-16.678,2.061-31.913-10.107-34.025-27.178
									c-2.11-17.076,9.699-32.587,26.378-34.65c16.677-2.063,31.91,10.105,34.023,27.179
									C897.145,726.277,885.339,741.79,868.66,743.854z"/>
								<path style="fill:#5F6666;" d="M846.638,737.784c6.091,4.685,13.881,7.077,22.022,6.07
									c9.52-1.177,17.448-6.744,22.112-14.475c-4.666-3.926-23.761-15.865-29.093-19.632
									C858.736,715.158,849.194,733.142,846.638,737.784z"/>
								<path style="fill:#090606;" d="M717.127,654.768c-0.109-0.873,0.381-1.745,1.236-2.09
									c0.701-0.281,17.275-6.874,23.238-7.612c5.981-0.743,10.784,2.89,11.784,3.713l109.452,60.772
									c0.962,0.537,1.307,1.748,0.775,2.708c-0.535,0.961-1.744,1.309-2.706,0.772l-109.62-60.863
									c-0.126-0.072-0.248-0.156-0.355-0.252c-0.037-0.031-4.063-3.494-8.842-2.902c-5.458,0.676-22.084,7.294-22.252,7.361
									c-1.017,0.406-2.174-0.09-2.585-1.111C717.19,655.101,717.149,654.937,717.127,654.768z"/>
							</g>
							<g>
								<path style="fill:#878888;" d="M729.964,307.935c-14.892,6.123-21.883,23.443-15.614,38.689
									c6.264,15.243,23.419,22.639,38.311,16.517c14.89-6.125,21.882-23.447,15.615-38.688
									C762.008,309.208,744.853,301.812,729.964,307.935z"/>
								<path style="fill:#5F6666;" d="M714.435,323.362c2.881-6.78,8.261-12.438,15.53-15.427
									c8.498-3.496,17.734-2.579,25.262,1.681c-2.045,5.471-12.369,24.416-15.048,30.071
									C735.176,336.555,718.75,326.034,714.435,323.362z"/>
								<path style="fill:#090606;" d="M645.38,453.565c0.322,0.782,1.14,1.28,2.017,1.163c0.718-0.094,17.653-2.385,22.976-4.574
									c5.341-2.196,7.641-7.487,8.091-8.644l62.774-102.206c0.549-0.899,0.27-2.071-0.63-2.622
									c-0.899-0.552-2.069-0.271-2.621,0.626l-62.87,102.365c-0.074,0.119-0.134,0.241-0.178,0.373
									c-0.016,0.045-1.749,4.827-6.015,6.581c-4.874,2.004-21.863,4.301-22.034,4.323c-1.043,0.14-1.774,1.1-1.635,2.143
									C645.277,453.259,645.319,453.417,645.38,453.565z"/>
							</g>
							<g>
								<path style="fill:#001262;" d="M277.221,612.781c-5.727,19.978-4.89,65.002,7.175,96.273l312.948-133.676l-21.814-54.333
									c0,0-7.948-25.852-50.777-21.435c-19.396,2.002-174.466,20.315-229.092,74.408
									C287.511,585.741,281.241,598.754,277.221,612.781z"/>
								<path style="fill:#0020B1;" d="M386.735,665.339l210.608-89.961l-21.814-54.333c0,0-7.948-25.852-50.777-21.435
									c-15.584,1.611-118.746,13.753-187.03,46.518L386.735,665.339z"/>
							</g>
							<g>
								<path style="fill:#001262;" d="M631.237,656.549l-22.708-53.964l-212.978,84.203l-2.486,0.979l-101.002,39.931
									c0.212,0.48,0.424,0.96,0.643,1.441c0.176,0.402,0.363,0.798,0.55,1.196c0.513,1.092,1.041,2.189,1.599,3.287
									c0.337,0.661,0.675,1.324,1.016,1.976c0.292,0.563,0.589,1.11,0.893,1.669c2.711,4.995,5.811,9.986,9.159,14.847
									c0.319,0.461,0.642,0.937,0.969,1.403c3.098,4.411,6.381,8.709,9.773,12.814c0.39,0.491,0.789,0.963,1.186,1.435
									c1.048,1.257,2.105,2.488,3.171,3.698c0.498,0.573,1,1.138,1.501,1.703c3.101,3.464,6.239,6.745,9.346,9.788
									c0.403,0.403,0.819,0.801,1.227,1.192c0.495,0.481,0.992,0.955,1.491,1.426l18.31-12.645l38.976,18.325H417.4l15.842-5.758
									l-10.265-24.969c0.839-0.292,1.672-0.597,2.514-0.906l10.271,24.952l43.106-15.672l29.769,7.307
									c0.779-0.433,1.552-0.876,2.334-1.319c1.545-0.881,3.088-1.762,4.627-2.653c1.532-0.896,3.06-1.781,4.574-2.682
									c1.208-0.708,2.412-1.429,3.61-2.14c4.068-2.445,8.066-4.904,11.989-7.354c1.444-0.908,2.881-1.816,4.303-2.714
									c12.336-7.851,23.739-15.588,33.649-22.58c0.961-0.681,1.908-1.355,2.841-2.017c1.666-1.185,3.28-2.342,4.854-3.477
									c0.522-0.381,1.039-0.752,1.558-1.123c1.613-1.175,3.175-2.307,4.681-3.412c0.75-0.554,1.487-1.103,2.207-1.63
									c1.951-1.45,3.795-2.826,5.515-4.12c0.313-0.234,0.615-0.464,0.909-0.689c0.097-0.065,0.195-0.14,0.286-0.208
									c0.391-0.301,0.78-0.59,1.156-0.875c3.771-2.862,6.867-5.261,9.186-7.089c0.231-0.182,0.458-0.356,0.675-0.524
									c1.076-0.858,1.963-1.564,2.634-2.103C643.776,680.517,631.237,656.549,631.237,656.549z"/>
								<path style="fill:#0020B1;" d="M618.174,700.331c-2.309,2.35-4.944,4.747-7.952,7.163c-0.666,0.544-1.557,1.252-2.634,2.106
									c-0.212,0.174-0.441,0.345-0.675,0.524c-2.312,1.833-5.41,4.229-9.179,7.091c-0.382,0.287-0.763,0.573-1.163,0.868
									c-0.09,0.073-0.187,0.148-0.284,0.212c-0.294,0.223-0.594,0.453-0.906,0.69c-1.723,1.295-3.559,2.672-5.515,4.122
									c-0.725,0.532-1.453,1.072-2.208,1.629c-1.506,1.104-3.071,2.234-4.683,3.413c-0.515,0.367-1.029,0.743-1.554,1.121
									c-1.58,1.135-3.192,2.288-4.859,3.474c-0.93,0.661-1.878,1.34-2.836,2.018c-9.91,6.994-21.312,14.732-33.651,22.577
									c-1.423,0.902-2.855,1.812-4.304,2.721c-3.922,2.451-7.921,4.907-11.991,7.352c-1.191,0.712-2.4,1.432-3.609,2.144
									c-1.508,0.898-3.043,1.786-4.569,2.676c-1.542,0.896-3.084,1.775-4.627,2.656c-0.786,0.445-1.562,0.888-2.337,1.322
									l-27.519-6.758l-2.246-0.554l-43.114,15.675l-10.269-24.958l-27.688-67.345l-2.252-5.483l212.977-84.203l22.71,53.964
									C631.235,656.55,641.627,676.408,618.174,700.331z"/>
								<g>
									<path style="fill:#001262;" d="M382.057,661.006l121.866-57.45l-7.71-26.61c0,0,3.612-17.458-23.116-13.747
										c-16.036,2.229-72.698,8.733-118.74,30.439l-19.053-46.339c-15.697,7.741-29.428,16.605-39.644,26.72
										c-8.149,11.724-14.418,24.737-18.439,38.764c-5.727,19.978-4.89,65.002,7.175,96.273l99.877-42.662L382.057,661.006z"/>
									<path style="fill:#001262;" d="M535.548,672.605l-13.236-24.338l-124.507,44.001l-2.528,0.892l-2.212-5.393
										l-101.002,39.931c0.212,0.48,0.424,0.96,0.643,1.441c0.176,0.402,0.363,0.798,0.55,1.196
										c0.513,1.092,1.041,2.189,1.599,3.287c0.337,0.661,0.675,1.324,1.016,1.976c0.292,0.563,0.589,1.11,0.893,1.669
										c2.711,4.995,5.811,9.986,9.159,14.847c0.319,0.461,0.642,0.937,0.969,1.403c3.098,4.411,6.381,8.709,9.773,12.814
										c0.39,0.491,0.789,0.963,1.186,1.435c1.048,1.257,2.105,2.488,3.171,3.698c0.498,0.573,1,1.138,1.501,1.703
										c3.101,3.464,6.239,6.745,9.346,9.788c0.403,0.403,0.819,0.801,1.227,1.192c0.495,0.481,0.992,0.955,1.491,1.426
										l18.31-12.645l38.976,18.325h25.786l21.072-7.524l-13.236-24.105c-0.21,0.077-0.425,0.151-0.002-0.004
										c47.038-17.277,90.552-51.455,103.289-60.981C550.393,682.479,535.548,672.605,535.548,672.605z"/>
								</g>
							</g>
							<path style="fill:#122DF3;" d="M516.246,564.002c0,0-6.277-15.858-21.156-10.372c-14.876,5.484-156.206,92.72-156.206,92.72
								s-24.704,14.988-17.138,28.307l205.292-84.408L516.246,564.002z"/>
							<path style="fill:#122DF3;" d="M559.954,670.309c0,0,6.692,15.687-7.741,22.252c-14.433,6.567-176.25,43.972-176.25,43.972
								s-28.101,6.726-32.094-8.065l205.294-84.406L559.954,670.309z"/>
							
								<rect x="304.759" y="668.317" transform="matrix(0.9249 -0.3802 0.3802 0.9249 -231.1033 179.3504)" style="fill:#A9A8A1;" width="67.31" height="12.639"/>
							
								<rect x="322.078" y="710.439" transform="matrix(0.9248 -0.3803 0.3803 0.9248 -245.8783 189.1672)" style="fill:#A9A8A1;" width="67.309" height="12.639"/>
							<path style="fill:#090606;" d="M242.376,763.368c-11.471,4.717-23.715,1.381-27.346-7.453l-4.169-10.14
								c-3.631-8.831,2.723-19.815,14.194-24.532l226.951-93.313c11.473-4.717,23.717-1.378,27.349,7.453l4.168,10.138
								c3.631,8.832-2.724,19.816-14.195,24.532L242.376,763.368z"/>
							<path style="fill:#A9CE00;" d="M566.97,651.361c-6.745,2.773-14.772,3.752-24.548-20.027l-11.226-27.303
								c-9.772-23.772-1.959-27.819,4.785-30.593l123.15-72.334c6.745-2.772,20.135,14.254,29.911,38.027l11.225,27.302
								c9.777,23.777,12.235,45.3,5.491,48.073L566.97,651.361z"/>
							<g>
								<path style="fill:#4768FC;" d="M530.325,652.478l155.011-63.734c11.388-4.683,16.624-18.195,11.698-30.18l-5.659-13.758
									c-4.926-11.984-18.153-17.903-29.539-13.221l-154.91,63.693C503.794,608.279,514.134,641.969,530.325,652.478z"/>
							</g>
							<path style="fill:#122DF3;" d="M748.73,688.205l15.162-9.248c0,0-31.359-41.117-36.334-60.771
								c-4.981-19.656,17.975-43.005,0.103-79.53l-0.544-1.318c-12.986-38.535-45.729-38.984-56.013-56.456
								c-10.289-17.471-16.922-68.757-16.922-68.757l-17.281,4.093c3.197,14.403-3.725,35.713-9.546,72.941
								c-1.155,7.37-1.198,15.053-0.547,22.637l-120.75,48.885l47.337,116.923l121.724-49.278
								c4.664,5.483,9.843,10.561,15.519,14.746C720.964,665.443,740.871,675.716,748.73,688.205z"/>
							<path style="fill:#6A88F2;" d="M691.928,586.031l-231.857,95.331c-11.383,4.679-24.614-1.243-29.539-13.225l-5.657-13.756
								c-4.925-11.983,0.311-25.497,11.694-30.176l231.858-95.332c7.741-3.183,18.026,3.951,22.951,15.933l5.657,13.758
								C701.96,570.543,699.671,582.848,691.928,586.031z"/>
							<path style="fill:#878888;" d="M703.291,598.005c-23.04,9.471-49.397-1.526-58.87-24.565
								c-9.474-23.039,1.524-49.396,24.563-58.869c23.042-9.474,49.399,1.523,58.872,24.564
								C737.33,562.175,726.331,588.533,703.291,598.005z"/>
							<path style="fill:#090606;" d="M805.823,723.063l11.225-19.256l-5.48-3.195l-1.17,2.008
								c-0.303-0.227-0.618-0.444-0.955-0.642l-46.026-26.834c-0.336-0.195-0.682-0.362-1.027-0.512l2.808-4.82l-5.479-3.196
								l-5.671,9.725c0,0,0,0-0.004,0.001l-0.208,0.361l-8.75,15.007l5.481,3.196l2.811-4.825c0.303,0.229,0.617,0.448,0.955,0.646
								l46.026,26.832c0.339,0.197,0.683,0.365,1.03,0.514l-1.05,1.795L805.823,723.063z"/>
							<path style="fill:#090606;" d="M659.098,409.411l-5.547,0.599c0.006-0.377-0.005-0.757-0.047-1.146l-5.736-52.968
								c-0.042-0.389-0.111-0.764-0.198-1.132l2.314-0.248l-0.685-6.308l-7.945,0.858c-0.003,0-0.008,0-0.012,0.001l-5.498,0.594
								l-8.705,0.94l0.683,6.312l2.067-0.227c-0.005,0.379,0.007,0.761,0.049,1.15l5.733,52.968
								c0.042,0.389,0.112,0.764,0.197,1.132l-5.549,0.6l0.684,6.31l28.879-3.126L659.098,409.411z"/>
							<path style="opacity:0.4;fill:#001262;" d="M691.928,586.031l-48.801,20.064c-8.654-5.374-15.392-12.836-19.218-22.14
								c-4.828-11.744-4.304-24.671,0.538-36.998l43.981-18.084c7.741-3.183,18.026,3.951,22.951,15.933l5.657,13.758
								C701.96,570.543,699.671,582.848,691.928,586.031z"/>
							<g>
								<path style="fill:#878888;" d="M703.662,598.92c-0.558,0.228-1.113,0.448-1.681,0.647
									c-9.315,3.418-19.097,3.553-28.022,0.958c-12.74-3.695-23.724-12.955-29.159-26.169
									c-9.474-23.045,1.519-49.398,24.565-58.869c23.035-9.478,49.398,1.517,58.87,24.563
									C737.703,563.085,726.707,589.446,703.662,598.92z"/>
								<path style="fill:#FFFBE5;" d="M701.206,592.932c-19.735,8.114-42.311-1.307-50.422-21.039
									c-8.115-19.734,1.307-42.307,21.039-50.422c19.735-8.113,42.31,1.304,50.423,21.037
									C730.36,562.243,720.938,584.818,701.206,592.932z"/>
								<path style="fill:#F8F89B;" d="M694.143,575.758c-10.248,4.213-21.97-0.68-26.186-10.928
									c-4.213-10.248,0.679-21.97,10.926-26.184c10.25-4.212,21.975,0.675,26.188,10.926
									C709.284,559.819,704.392,571.544,694.143,575.758z"/>
							</g>
							<g>
								<path style="fill:#090606;" d="M645.08,511.996c-11.954,4.914-25.625-0.792-30.539-12.742
									c-4.916-11.953,0.791-25.624,12.742-30.54c11.951-4.913,25.625,0.79,30.539,12.742
									C662.737,493.41,657.03,507.083,645.08,511.996z"/>
								<path style="fill:#D7C989;" d="M643.801,508.892c-10.235,4.209-21.948-0.68-26.157-10.915
									c-4.21-10.238,0.678-21.948,10.915-26.159c10.239-4.207,21.949,0.678,26.158,10.915
									C658.925,492.969,654.039,504.682,643.801,508.892z"/>
								<path style="fill:#F8F89B;" d="M645.875,499.684c-6.619,2.72-14.191-0.44-16.91-7.057
									c-2.721-6.618,0.436-14.188,7.053-16.908c6.619-2.722,14.191,0.436,16.912,7.054
									C655.649,489.393,652.492,496.962,645.875,499.684z"/>
							</g>
							<g>
								<path style="fill:#090606;" d="M707.748,664.418c-11.953,4.914-25.624-0.791-30.54-12.745
									c-4.915-11.953,0.793-25.623,12.743-30.538c11.953-4.913,25.625,0.79,30.539,12.744
									C725.407,645.831,719.7,659.505,707.748,664.418z"/>
								<path style="fill:#D7C989;" d="M706.471,661.312c-10.237,4.208-21.949-0.678-26.157-10.913
									c-4.209-10.237,0.678-21.948,10.914-26.159c10.237-4.209,21.949,0.678,26.159,10.915
									C721.596,645.391,716.707,657.102,706.471,661.312z"/>
								<path style="fill:#F8F89B;" d="M708.239,653.627c-6.619,2.721-14.189-0.438-16.91-7.056
									c-2.723-6.619,0.438-14.19,7.057-16.91c6.618-2.722,14.188,0.436,16.91,7.056
									C718.014,643.333,714.854,650.905,708.239,653.627z"/>
							</g>
							<path style="fill:#8FB0FF;" d="M456.476,667.198c-8.343,3.43-17.889-0.552-21.319-8.896l0,0
								c-3.43-8.345,0.551-17.889,8.896-21.32L596.266,574.4c8.341-3.432,17.888,0.553,21.318,8.898l0,0
								c3.431,8.342-0.552,17.887-8.897,21.318L456.476,667.198z"/>
							<path style="fill:#090606;" d="M709.974,586.691c-1.606-1.029-8.961,2.786-10.92,2.125c0.611,3.919,1.626,7.425,2.926,10.751
								c-9.315,3.418-19.097,3.553-28.022,0.958c2.065-3.779,3.992-7.57,5.151-9.541c4.113-7.041,2.19-6.609-1.32-13.305
								c-3.472-6.597,2.288-8.834,6.6-14.42c4.313-5.589,8.087-12.761,13.471-17.357c-4.542,4.956-7.777,11.444-11.126,17.15
								c-2.495,4.255-6.074,8.038-7.983,12.292c1.961,1.241,3.738,3.19,5.515,4.435c3.414-3.88,8.092-8.555,12.679-10.968
								c-3.033,3.083-11.427,9.322-12.894,13.417c-0.734,2.06,0.941,5.924,0.197,8.495c-0.734,2.544-3.221,5.255-4.249,8.283
								c5.505,0.098,11.653-3.344,17.211-4.233c-0.653-2.023-4.101-5.571-3.813-7.941c0.324-2.702,7.323-9.088,9.195-11.361
								c3.841-4.688,4.483-5.123,1.921-10.89c-1.716-3.851-5.131-8.296-4.544-12.544c5.401,3.77,5.135,12.171,9.511,17.383
								c-3.481,4.496-4.53,8.428-7.653,13.026c2.333-0.323,4.596-0.083,6.893,0.634c1.824-2.263,3.288-4.857,5.104-6.994
								C711.21,581.083,711.242,581.425,709.974,586.691z"/>
							<path style="fill:#090606;" d="M618.174,700.331c-2.309,2.35-4.944,4.747-7.952,7.163c-0.666,0.544-1.557,1.252-2.634,2.106
								c-0.212,0.174-0.441,0.345-0.675,0.524c-2.312,1.833-5.41,4.229-9.179,7.091c-0.382,0.287-0.763,0.573-1.163,0.868
								c-0.09,0.073-0.187,0.148-0.284,0.212c-0.294,0.223-0.594,0.453-0.906,0.69c-1.723,1.295-3.559,2.672-5.515,4.122
								c-0.725,0.532-1.453,1.072-2.208,1.629c-1.506,1.104-3.071,2.234-4.683,3.413c-0.515,0.367-1.029,0.743-1.554,1.121
								c-1.58,1.135-3.192,2.288-4.859,3.474c-0.93,0.661-1.878,1.34-2.836,2.018c-9.91,6.994-21.312,14.732-33.651,22.577
								c-1.423,0.902-2.855,1.812-4.304,2.721c-3.922,2.451-7.921,4.907-11.991,7.352c-1.191,0.712-2.4,1.432-3.609,2.144
								c-1.508,0.898-3.043,1.786-4.569,2.676c-1.542,0.896-3.084,1.775-4.627,2.656c-0.786,0.445-1.562,0.888-2.337,1.322
								l-27.519-6.758c1.965-3.312,3.679-6.391,4.856-8.509c-3.628-0.684-6.288-3.443-8.936-4.485
								c15.851-13.088,34.595-22.721,48.705-39.343c-8.594,12.845-25.285,23.111-36.535,35.585c3.048,0.964,6.139,3.289,9.618,3.572
								c-4.209,1.68-7.362,5.092-8.9,9.446c8.188,0.656,14.74,3.35,22.837,3.508c-1.293-5.308-0.351-12.511-1.463-17.796
								c2.049,3.812,4.623,8.747,8.325,11.951c8.01-4.463,24.565-11.233,27.946-19.695c5.251-13.148-6.836-37.253,5.477-47.549
								c1.34,10.302-1.78,26.515,1.327,36.212c4.165,12.995,12.138,3.928,21.879-0.76c-0.869-3.128-0.578-7.505-2.08-10.977
								c3.048,1.86,6.843,1.999,10.158,3.626c-0.874-1.189-1.869-4.692-3.274-6.239c8.235,4.597,26.308-11.286,33.709-15.654
								C615.897,701.673,617.035,701.002,618.174,700.331z"/>
						</g>
						<g>
							<path style="fill:#0020B1;" d="M564.405,755.963c0.798,3.336,2.213,12.093,2.455,12.945l1.293,5.169
								c5.66,0.4,18.665,6.308,26.94,8.915c1.303-8.285,2.038-17.819,3.9-25.484C589.449,755.102,573.964,752.403,564.405,755.963z"
								/>
							<path style="fill:#0020B1;" d="M544.54,784.469c-0.657-1.807-2.007-6.593-2.196-7.051l-1.051-2.796
								c-3.177,0.14-10.799-2.316-15.574-3.239c-0.194,4.697,0.006,10.053-0.538,14.443
								C530.65,786.552,539.445,787.064,544.54,784.469z"/>
							<path style="fill:#122DF3;" d="M697.152,775.563c-9.885,0.163-22.234,0.826-31.909-0.389
								c0.896-2.567-0.116-7.407,0.898-9.946c-11.73-0.71-31.091-0.224-41.88,3.651c3.082,4.375,13.669,11.029,12.366,11.658
								l2.582,2.584c0.432,0.698,19.997,1.756,25.808,2.618c10.536,1.566,21.785,2.414,32.135,3.676
								C697.484,784.887,697.484,780.089,697.152,775.563z"/>
							<path style="fill:#ADB4DE;" d="M198.388,767.811c-9.882,0.163-22.233,0.825-31.907-0.391
								c0.896-2.566-0.115-7.405,0.897-9.944c-11.729-0.71-31.091-0.222-41.879,3.651c3.081,4.376,13.669,11.029,12.365,11.658
								l2.584,2.583c0.432,0.699,19.997,1.755,25.808,2.618c10.535,1.565,21.784,2.415,32.132,3.675
								C198.723,777.134,198.723,772.336,198.388,767.811z"/>
							<path style="fill:#ADB4DE;" d="M724.791,789.291c9.585-2.415,21.458-5.881,31.152-6.906
								c-0.287,2.702,1.803,7.184,1.398,9.888c11.583-1.989,30.32-6.882,39.941-13.117c-4-3.557-15.828-7.617-14.702-8.526
								l-3.107-1.928c-0.577-0.579-19.868,2.859-25.722,3.346c-10.614,0.881-21.761,2.624-32.124,3.759
								C722.336,780.291,723.432,784.961,724.791,789.291z"/>
						</g>
					</g>
				</g>
			</g>
		</g>
	</g>
</g>
</svg>
